<svg width="275" height="177" viewBox="0 0 275 177" fill="none" xmlns="http://www.w3.org/2000/svg">
<path d="M63.6284 -4.28036e-06C28.5348 -4.28036e-06 0 28.5333 0 63.6278C0 94.8067 22.3678 121.088 52.7136 126.325C54.3777 148.743 35.8764 167.635 35.6806 167.832C34.1144 169.445 33.772 171.845 34.8975 173.754C35.8276 175.318 37.4426 176.2 39.1558 176.2C39.5474 176.2 39.988 176.152 40.4284 176.006C129.263 151.337 127.403 68.0827 127.256 63.5307C127.159 28.4848 98.6729 -4.28036e-06 63.6284 -4.28036e-06Z" fill="#FF5938"/>
<path d="M274.09 63.5307C273.993 28.4848 245.508 -4.28036e-06 210.462 -4.28036e-06C175.369 -4.28036e-06 146.834 28.5333 146.834 63.6278C146.834 94.8067 169.202 121.088 199.549 126.325C201.212 148.743 182.711 167.635 182.515 167.832C180.949 169.445 180.606 171.845 181.732 173.754C182.662 175.318 184.277 176.2 185.99 176.2C186.382 176.2 186.823 176.152 187.263 176.006C276.099 151.337 274.238 68.0827 274.09 63.5307Z" fill="#FF5938"/>
</svg>
