<svg width="249" height="51" viewBox="0 0 249 51" fill="none" xmlns="http://www.w3.org/2000/svg">
<path d="M245.055 23.5908C245.83 23.9824 245.83 25.125 245.055 25.5166C240.585 27.7772 238.521 30.0826 236.569 35.0957C236.219 35.9955 234.882 35.9955 234.531 35.0957C232.58 30.0826 230.515 27.7772 226.045 25.5166C225.271 25.125 225.271 23.9824 226.045 23.5908C230.515 21.3302 232.58 19.0248 234.531 14.0118C234.882 13.112 236.219 13.112 236.569 14.0118C238.52 19.0246 240.585 21.3302 245.055 23.5908Z" fill="white"/>
<path d="M247.969 6.97127C248.354 7.17131 248.354 7.74221 247.969 7.94225C246.187 8.86826 245.315 9.83592 244.513 11.8208C244.333 12.2684 243.662 12.2684 243.481 11.8208C242.679 9.8359 241.807 8.86824 240.025 7.94222C239.64 7.74218 239.64 7.17131 240.025 6.97126C241.807 6.04527 242.679 5.07764 243.481 3.09284C243.662 2.64518 244.333 2.64519 244.513 3.09286C245.315 5.07747 246.187 6.04524 247.969 6.97127Z" fill="white"/>
<path d="M202.479 50.2734C201.565 50.2904 200.718 50.2227 199.94 50.0703C199.178 49.9349 198.56 49.7741 198.086 49.5879L199.66 44.3828L199.991 44.4844C201.345 44.8398 202.496 44.8652 203.444 44.5605C204.409 44.2559 205.179 43.3333 205.754 41.793L206.313 40.2695L196.055 11.2734H203.139L209.664 32.7285H209.969L216.52 11.2734H223.655L212.28 43.0879C211.755 44.5944 211.061 45.8809 210.198 46.9473C209.334 48.0306 208.268 48.8516 206.998 49.4102C205.729 49.9857 204.222 50.2734 202.479 50.2734Z" fill="white"/>
<path d="M179.804 39.6602V11.2734H186.279V16.0469H186.583C187.091 14.388 187.98 13.1185 189.249 12.2383C190.519 11.3411 191.966 10.8926 193.591 10.8926C193.947 10.8926 194.353 10.9095 194.81 10.9434C195.284 10.9772 195.673 11.0195 195.978 11.0703V17.2148C195.69 17.1133 195.241 17.0286 194.632 16.9609C194.023 16.8932 193.439 16.8594 192.88 16.8594C191.644 16.8594 190.544 17.1217 189.579 17.6465C188.615 18.1712 187.853 18.8906 187.294 19.8047C186.753 20.7188 186.482 21.7852 186.482 23.0039V39.6602H179.804Z" fill="white"/>
<path d="M164.619 40.2188C161.776 40.2188 159.321 39.6263 157.256 38.4414C155.191 37.2396 153.6 35.5469 152.483 33.3633C151.382 31.1797 150.832 28.6068 150.832 25.6445C150.832 22.7161 151.382 20.1517 152.483 17.9512C153.583 15.7337 155.132 14.0072 157.129 12.7715C159.127 11.5358 161.479 10.918 164.188 10.918C165.931 10.918 167.582 11.1973 169.139 11.7559C170.713 12.3145 172.101 13.1777 173.303 14.3457C174.522 15.5137 175.478 17.0033 176.172 18.8145C176.866 20.6087 177.213 22.75 177.213 25.2383V27.3203H153.955V22.8262H173.887L170.764 24.1465C170.764 22.5384 170.518 21.1419 170.028 19.957C169.537 18.7552 168.809 17.8158 167.844 17.1387C166.879 16.4616 165.677 16.123 164.239 16.123C162.8 16.123 161.573 16.4616 160.557 17.1387C159.541 17.8158 158.771 18.7298 158.246 19.8809C157.722 21.015 157.459 22.2845 157.459 23.6895V26.8125C157.459 28.5391 157.755 30.0202 158.348 31.2559C158.957 32.4746 159.804 33.4056 160.887 34.0488C161.987 34.6921 163.265 35.0137 164.721 35.0137C165.669 35.0137 166.532 34.8783 167.311 34.6074C168.106 34.3366 168.783 33.9303 169.342 33.3887C169.918 32.8301 170.358 32.1445 170.662 31.332L176.908 32.0684C176.502 33.7103 175.749 35.1491 174.649 36.3848C173.565 37.6035 172.169 38.5514 170.459 39.2285C168.767 39.8887 166.82 40.2188 164.619 40.2188Z" fill="white"/>
<path d="M151.364 11.2734L141.259 39.6602H133.845L123.765 11.2734H130.9L137.476 32.373H137.78L144.306 11.2734H151.364Z" fill="white"/>
<path d="M110.738 40.2188C107.962 40.2188 105.559 39.6094 103.527 38.3906C101.496 37.1719 99.922 35.4622 98.8048 33.2617C97.7045 31.0612 97.1544 28.5052 97.1544 25.5938C97.1544 22.6654 97.7045 20.1009 98.8048 17.9004C99.922 15.6829 101.496 13.9648 103.527 12.7461C105.559 11.5273 107.962 10.918 110.738 10.918C113.514 10.918 115.918 11.5273 117.949 12.7461C119.981 13.9648 121.555 15.6829 122.672 17.9004C123.789 20.1009 124.348 22.6654 124.348 25.5938C124.348 28.5052 123.789 31.0612 122.672 33.2617C121.555 35.4622 119.981 37.1719 117.949 38.3906C115.918 39.6094 113.514 40.2188 110.738 40.2188ZM110.738 34.8359C112.279 34.8359 113.548 34.4297 114.547 33.6172C115.546 32.7878 116.29 31.6706 116.781 30.2656C117.289 28.8607 117.543 27.3034 117.543 25.5938C117.543 23.8503 117.289 22.276 116.781 20.8711C116.29 19.4661 115.546 18.3574 114.547 17.5449C113.548 16.7155 112.279 16.3008 110.738 16.3008C109.232 16.3008 107.971 16.7155 106.955 17.5449C105.94 18.3574 105.178 19.4661 104.67 20.8711C104.179 22.276 103.934 23.8503 103.934 25.5938C103.934 27.3034 104.179 28.8607 104.67 30.2656C105.178 31.6706 105.94 32.7878 106.955 33.6172C107.971 34.4297 109.232 34.8359 110.738 34.8359Z" fill="white"/>
<path d="M83.6456 40.2188C80.8188 40.2188 78.3898 39.6009 76.3585 38.3652C74.3273 37.1126 72.77 35.3861 71.6866 33.1855C70.6033 30.985 70.0616 28.4544 70.0616 25.5938C70.0616 22.6992 70.6118 20.1517 71.712 17.9512C72.8123 15.7507 74.3781 14.0326 76.4093 12.7969C78.4406 11.5443 80.8357 10.918 83.5948 10.918C85.9139 10.918 87.962 11.3411 89.7394 12.1875C91.5167 13.0339 92.9301 14.2272 93.9796 15.7676C95.046 17.291 95.6554 19.0768 95.8077 21.125H89.4093C89.24 20.2109 88.91 19.39 88.4191 18.6621C87.9282 17.9342 87.285 17.3587 86.4894 16.9355C85.7107 16.5124 84.7797 16.3008 83.6964 16.3008C82.3253 16.3008 81.1235 16.6732 80.0909 17.418C79.0753 18.1458 78.2797 19.1953 77.7042 20.5664C77.1287 21.9375 76.8409 23.5794 76.8409 25.4922C76.8409 27.4219 77.1202 29.0892 77.6788 30.4941C78.2374 31.8822 79.033 32.957 80.0656 33.7188C81.0981 34.4635 82.3084 34.8359 83.6964 34.8359C85.1691 34.8359 86.4132 34.4043 87.4288 33.541C88.4614 32.6777 89.1215 31.4844 89.4093 29.9609H95.8077C95.6554 31.9753 95.0629 33.7526 94.0304 35.293C92.9978 36.8333 91.6014 38.0436 89.8409 38.9238C88.0805 39.7871 86.0154 40.2188 83.6456 40.2188Z" fill="white"/>
<path d="M68.1055 18.8145L62.0372 19.4492C61.7833 18.5182 61.2331 17.6973 60.3868 16.9863C59.5404 16.2585 58.3471 15.8945 56.8067 15.8945C55.4187 15.8945 54.2507 16.1992 53.3028 16.8086C52.3718 17.418 51.9063 18.1966 51.9063 19.1445C51.9063 19.974 52.211 20.6595 52.8204 21.2012C53.4467 21.7259 54.4792 22.1491 55.918 22.4707L60.7676 23.4863C63.4252 24.0449 65.4141 24.959 66.7344 26.2285C68.0547 27.498 68.7149 29.14 68.7149 31.1543C68.7149 32.9316 68.1986 34.5059 67.1661 35.877C66.1335 37.248 64.7032 38.3145 62.8751 39.0762C61.0639 39.8379 58.9734 40.2188 56.6036 40.2188C53.1335 40.2188 50.3406 39.4909 48.2247 38.0352C46.1257 36.5625 44.8646 34.5228 44.4415 31.916L50.9669 31.3066C51.2546 32.5762 51.8809 33.541 52.8458 34.2012C53.8275 34.8444 55.0801 35.166 56.6036 35.166C58.1947 35.166 59.4727 34.8444 60.4376 34.2012C61.4024 33.541 61.8848 32.737 61.8848 31.7891C61.8848 30.1979 60.6153 29.1146 58.0762 28.5391L53.2266 27.5234C50.5014 26.931 48.487 25.9746 47.1837 24.6543C45.8803 23.3171 45.2286 21.6159 45.2286 19.5508C45.2286 17.7904 45.711 16.2669 46.6758 14.9805C47.6407 13.694 48.9864 12.6953 50.713 11.9844C52.4395 11.2734 54.4369 10.918 56.7051 10.918C60.0398 10.918 62.655 11.6374 64.5508 13.0762C66.4636 14.498 67.6485 16.4108 68.1055 18.8145Z" fill="white"/>
<path d="M35.1221 39.6602V11.2734H41.7999V39.6602H35.1221ZM38.4737 7.28711C37.4073 7.28711 36.4932 6.93164 35.7315 6.2207C34.9698 5.50977 34.5889 4.65495 34.5889 3.65625C34.5889 2.64062 34.9698 1.77734 35.7315 1.06641C36.4932 0.355469 37.4073 0 38.4737 0C39.5232 0 40.4288 0.355469 41.1905 1.06641C41.9522 1.77734 42.3331 2.63216 42.3331 3.63086C42.3331 4.64648 41.9522 5.50977 41.1905 6.2207C40.4288 6.93164 39.5232 7.28711 38.4737 7.28711Z" fill="white"/>
<path d="M13.5898 39.6602H3.99219V33.7188H13.2344C15.8581 33.7188 18.0501 33.2448 19.8105 32.2969C21.5879 31.332 22.9167 29.8848 23.7969 27.9551C24.694 26.0254 25.1426 23.6133 25.1426 20.7188C25.1426 17.8242 24.7025 15.4206 23.8223 13.5078C22.9421 11.5951 21.6302 10.1647 19.8867 9.2168C18.1432 8.25195 15.985 7.76953 13.4121 7.76953H3.78906V1.82812H13.8184C17.5762 1.82812 20.8008 2.58138 23.4922 4.08789C26.2005 5.5944 28.2826 7.76107 29.7383 10.5879C31.194 13.4147 31.9219 16.7917 31.9219 20.7188C31.9219 24.6458 31.194 28.0312 29.7383 30.875C28.2826 33.7018 26.1836 35.877 23.4414 37.4004C20.7161 38.9069 17.4323 39.6602 13.5898 39.6602ZM7.59766 1.82812V39.6602H0.742188V1.82812H7.59766Z" fill="white"/>
</svg>
