<svg width="249" height="51" viewBox="0 0 249 51" fill="none" xmlns="http://www.w3.org/2000/svg">
<path d="M245.055 23.9306C245.83 24.3222 245.83 25.4648 245.055 25.8564C240.585 28.117 238.521 30.4225 236.569 35.4356C236.219 36.3354 234.882 36.3354 234.531 35.4356C232.58 30.4225 230.515 28.117 226.045 25.8564C225.271 25.4648 225.271 24.3222 226.045 23.9306C230.515 21.6701 232.58 19.3646 234.531 14.3516C234.882 13.4518 236.219 13.4518 236.569 14.3516C238.52 19.3644 240.585 21.67 245.055 23.9306Z" fill="#00664E"/>
<path d="M247.969 7.31111C248.354 7.51115 248.354 8.08205 247.969 8.2821C246.187 9.2081 245.315 10.1758 244.513 12.1606C244.333 12.6083 243.662 12.6083 243.481 12.1606C242.679 10.1757 241.807 9.20808 240.025 8.28207C239.64 8.08203 239.64 7.51115 240.025 7.31111C241.807 6.38512 242.679 5.41748 243.481 3.43268C243.662 2.98502 244.333 2.98504 244.513 3.43271C245.315 5.41731 246.187 6.38509 247.969 7.31111Z" fill="#00664E"/>
<path d="M202.479 50.6133C201.565 50.6302 200.718 50.5625 199.94 50.4102C199.178 50.2747 198.56 50.1139 198.086 49.9277L199.66 44.7227L199.991 44.8242C201.345 45.1797 202.496 45.2051 203.444 44.9004C204.409 44.5957 205.179 43.6732 205.754 42.1328L206.313 40.6094L196.055 11.6133H203.139L209.664 33.0684H209.969L216.52 11.6133H223.655L212.28 43.4277C211.755 44.9342 211.061 46.2207 210.198 47.2871C209.334 48.3704 208.268 49.1914 206.998 49.75C205.729 50.3255 204.222 50.6133 202.479 50.6133Z" fill="#202020"/>
<path d="M179.804 40V11.6133H186.279V16.3867H186.583C187.091 14.7279 187.98 13.4583 189.249 12.5781C190.519 11.681 191.966 11.2324 193.591 11.2324C193.947 11.2324 194.353 11.2493 194.81 11.2832C195.284 11.3171 195.673 11.3594 195.978 11.4102V17.5547C195.69 17.4531 195.241 17.3685 194.632 17.3008C194.023 17.2331 193.439 17.1992 192.88 17.1992C191.644 17.1992 190.544 17.4616 189.579 17.9863C188.615 18.5111 187.853 19.2305 187.294 20.1445C186.753 21.0586 186.482 22.125 186.482 23.3438V40H179.804Z" fill="#202020"/>
<path d="M164.619 40.5586C161.776 40.5586 159.321 39.9661 157.256 38.7812C155.191 37.5794 153.6 35.8867 152.483 33.7031C151.382 31.5195 150.832 28.9466 150.832 25.9844C150.832 23.056 151.382 20.4915 152.483 18.291C153.583 16.0736 155.132 14.347 157.129 13.1113C159.127 11.8757 161.479 11.2578 164.188 11.2578C165.931 11.2578 167.582 11.5371 169.139 12.0957C170.713 12.6543 172.101 13.5176 173.303 14.6855C174.522 15.8535 175.478 17.3431 176.172 19.1543C176.866 20.9486 177.213 23.0898 177.213 25.5781V27.6602H153.955V23.166H173.887L170.764 24.4863C170.764 22.8783 170.518 21.4818 170.028 20.2969C169.537 19.0951 168.809 18.1556 167.844 17.4785C166.879 16.8014 165.677 16.4629 164.239 16.4629C162.8 16.4629 161.573 16.8014 160.557 17.4785C159.541 18.1556 158.771 19.0697 158.246 20.2207C157.722 21.3548 157.459 22.6243 157.459 24.0293V27.1523C157.459 28.8789 157.755 30.36 158.348 31.5957C158.957 32.8145 159.804 33.7454 160.887 34.3887C161.987 35.0319 163.265 35.3535 164.721 35.3535C165.669 35.3535 166.532 35.2181 167.311 34.9473C168.106 34.6764 168.783 34.2702 169.342 33.7285C169.918 33.1699 170.358 32.4844 170.662 31.6719L176.908 32.4082C176.502 34.0501 175.749 35.4889 174.649 36.7246C173.565 37.9434 172.169 38.8913 170.459 39.5684C168.767 40.2285 166.82 40.5586 164.619 40.5586Z" fill="#202020"/>
<path d="M151.364 11.6133L141.259 40H133.845L123.765 11.6133H130.9L137.476 32.7129H137.78L144.306 11.6133H151.364Z" fill="#202020"/>
<path d="M110.738 40.5586C107.962 40.5586 105.559 39.9492 103.527 38.7305C101.496 37.5117 99.922 35.8021 98.8048 33.6016C97.7045 31.401 97.1544 28.8451 97.1544 25.9336C97.1544 23.0052 97.7045 20.4408 98.8048 18.2402C99.922 16.0228 101.496 14.3047 103.527 13.0859C105.559 11.8672 107.962 11.2578 110.738 11.2578C113.514 11.2578 115.918 11.8672 117.949 13.0859C119.981 14.3047 121.555 16.0228 122.672 18.2402C123.789 20.4408 124.348 23.0052 124.348 25.9336C124.348 28.8451 123.789 31.401 122.672 33.6016C121.555 35.8021 119.981 37.5117 117.949 38.7305C115.918 39.9492 113.514 40.5586 110.738 40.5586ZM110.738 35.1758C112.279 35.1758 113.548 34.7695 114.547 33.957C115.546 33.1276 116.29 32.0104 116.781 30.6055C117.289 29.2005 117.543 27.6432 117.543 25.9336C117.543 24.1901 117.289 22.6159 116.781 21.2109C116.29 19.806 115.546 18.6973 114.547 17.8848C113.548 17.0553 112.279 16.6406 110.738 16.6406C109.232 16.6406 107.971 17.0553 106.955 17.8848C105.94 18.6973 105.178 19.806 104.67 21.2109C104.179 22.6159 103.934 24.1901 103.934 25.9336C103.934 27.6432 104.179 29.2005 104.67 30.6055C105.178 32.0104 105.94 33.1276 106.955 33.957C107.971 34.7695 109.232 35.1758 110.738 35.1758Z" fill="#202020"/>
<path d="M83.6456 40.5586C80.8188 40.5586 78.3898 39.9408 76.3585 38.7051C74.3273 37.4525 72.77 35.7259 71.6866 33.5254C70.6033 31.3249 70.0616 28.7943 70.0616 25.9336C70.0616 23.0391 70.6118 20.4915 71.712 18.291C72.8123 16.0905 74.3781 14.3724 76.4093 13.1367C78.4406 11.8841 80.8357 11.2578 83.5948 11.2578C85.9139 11.2578 87.962 11.681 89.7394 12.5273C91.5167 13.3737 92.9301 14.5671 93.9796 16.1074C95.046 17.6309 95.6554 19.4167 95.8077 21.4648H89.4093C89.24 20.5508 88.91 19.7298 88.4191 19.002C87.9282 18.2741 87.285 17.6986 86.4894 17.2754C85.7107 16.8522 84.7797 16.6406 83.6964 16.6406C82.3253 16.6406 81.1235 17.013 80.0909 17.7578C79.0753 18.4857 78.2797 19.5352 77.7042 20.9062C77.1287 22.2773 76.8409 23.9193 76.8409 25.832C76.8409 27.7617 77.1202 29.429 77.6788 30.834C78.2374 32.222 79.033 33.2969 80.0656 34.0586C81.0981 34.8034 82.3084 35.1758 83.6964 35.1758C85.1691 35.1758 86.4132 34.7441 87.4288 33.8809C88.4614 33.0176 89.1215 31.8242 89.4093 30.3008H95.8077C95.6554 32.3151 95.0629 34.0924 94.0304 35.6328C92.9978 37.1732 91.6014 38.3835 89.8409 39.2637C88.0805 40.127 86.0154 40.5586 83.6456 40.5586Z" fill="#202020"/>
<path d="M68.1055 19.1543L62.0372 19.7891C61.7833 18.8581 61.2331 18.0371 60.3868 17.3262C59.5404 16.5983 58.3471 16.2344 56.8067 16.2344C55.4187 16.2344 54.2507 16.5391 53.3028 17.1484C52.3718 17.7578 51.9063 18.5365 51.9063 19.4844C51.9063 20.3138 52.211 20.9993 52.8204 21.541C53.4467 22.0658 54.4792 22.4889 55.918 22.8105L60.7676 23.8262C63.4252 24.3848 65.4141 25.2988 66.7344 26.5684C68.0547 27.8379 68.7149 29.4798 68.7149 31.4941C68.7149 33.2715 68.1986 34.8457 67.1661 36.2168C66.1335 37.5879 64.7032 38.6543 62.8751 39.416C61.0639 40.1777 58.9734 40.5586 56.6036 40.5586C53.1335 40.5586 50.3406 39.8307 48.2247 38.375C46.1257 36.9023 44.8646 34.8626 44.4415 32.2559L50.9669 31.6465C51.2546 32.916 51.8809 33.8809 52.8458 34.541C53.8275 35.1842 55.0801 35.5059 56.6036 35.5059C58.1947 35.5059 59.4727 35.1842 60.4376 34.541C61.4024 33.8809 61.8848 33.0768 61.8848 32.1289C61.8848 30.5378 60.6153 29.4544 58.0762 28.8789L53.2266 27.8633C50.5014 27.2708 48.487 26.3145 47.1837 24.9941C45.8803 23.6569 45.2286 21.9557 45.2286 19.8906C45.2286 18.1302 45.711 16.6068 46.6758 15.3203C47.6407 14.0339 48.9864 13.0352 50.713 12.3242C52.4395 11.6133 54.4369 11.2578 56.7051 11.2578C60.0398 11.2578 62.655 11.9772 64.5508 13.416C66.4636 14.8379 67.6485 16.7507 68.1055 19.1543Z" fill="#202020"/>
<path d="M35.1221 40V11.6133H41.7999V40H35.1221ZM38.4737 7.62695C37.4073 7.62695 36.4932 7.27148 35.7315 6.56055C34.9698 5.84961 34.5889 4.99479 34.5889 3.99609C34.5889 2.98047 34.9698 2.11719 35.7315 1.40625C36.4932 0.695312 37.4073 0.339844 38.4737 0.339844C39.5232 0.339844 40.4288 0.695312 41.1905 1.40625C41.9522 2.11719 42.3331 2.97201 42.3331 3.9707C42.3331 4.98633 41.9522 5.84961 41.1905 6.56055C40.4288 7.27148 39.5232 7.62695 38.4737 7.62695Z" fill="#202020"/>
<path d="M13.5898 40H3.99219V34.0586H13.2344C15.8581 34.0586 18.0501 33.5846 19.8105 32.6367C21.5879 31.6719 22.9167 30.2246 23.7969 28.2949C24.694 26.3652 25.1426 23.9531 25.1426 21.0586C25.1426 18.1641 24.7025 15.7604 23.8223 13.8477C22.9421 11.9349 21.6302 10.5046 19.8867 9.55664C18.1432 8.5918 15.985 8.10938 13.4121 8.10938H3.78906V2.16797H13.8184C17.5762 2.16797 20.8008 2.92122 23.4922 4.42773C26.2005 5.93424 28.2826 8.10091 29.7383 10.9277C31.194 13.7546 31.9219 17.1315 31.9219 21.0586C31.9219 24.9857 31.194 28.3711 29.7383 31.2148C28.2826 34.0417 26.1836 36.2168 23.4414 37.7402C20.7161 39.2467 17.4323 40 13.5898 40ZM7.59766 2.16797V40H0.742188V2.16797H7.59766Z" fill="#202020"/>
</svg>
